<svg width="42" height="43" viewBox="0 0 42 43" fill="none" xmlns="http://www.w3.org/2000/svg">
<rect y="0.5" width="42" height="42" rx="8" fill="#DDFBDB"/>
<rect width="18" height="18" transform="translate(12 12.5)" fill="#DDFBDB"/>
<path d="M13.5 17C13.5 15.5858 13.5 14.8787 13.9393 14.4393C14.3787 14 15.0858 14 16.5 14C17.9142 14 18.6213 14 19.0607 14.4393C19.5 14.8787 19.5 15.5858 19.5 17V18.5C19.5 19.9142 19.5 20.6213 19.0607 21.0606C18.6213 21.5 17.9142 21.5 16.5 21.5C15.0858 21.5 14.3787 21.5 13.9393 21.0606C13.5 20.6213 13.5 19.9142 13.5 18.5V17Z" stroke="#119E07" stroke-width="1.5"/>
<path d="M13.5 26.75C13.5 26.0511 13.5 25.7017 13.6142 25.426C13.7664 25.0585 14.0584 24.7664 14.426 24.6142C14.7016 24.5 15.0511 24.5 15.75 24.5H17.25C17.9489 24.5 18.2984 24.5 18.574 24.6142C18.9416 24.7664 19.2336 25.0585 19.3858 25.426C19.5 25.7017 19.5 26.0511 19.5 26.75C19.5 27.4489 19.5 27.7983 19.3858 28.074C19.2336 28.4415 18.9416 28.7336 18.574 28.8858C18.2984 29 17.9489 29 17.25 29H15.75C15.0511 29 14.7016 29 14.426 28.8858C14.0584 28.7336 13.7664 28.4415 13.6142 28.074C13.5 27.7983 13.5 27.4489 13.5 26.75Z" stroke="#119E07" stroke-width="1.5"/>
<path d="M22.5 24.5C22.5 23.0858 22.5 22.3787 22.9394 21.9394C23.3787 21.5 24.0858 21.5 25.5 21.5C26.9142 21.5 27.6213 21.5 28.0606 21.9394C28.5 22.3787 28.5 23.0858 28.5 24.5V26C28.5 27.4142 28.5 28.1213 28.0606 28.5606C27.6213 29 26.9142 29 25.5 29C24.0858 29 23.3787 29 22.9394 28.5606C22.5 28.1213 22.5 27.4142 22.5 26V24.5Z" stroke="#119E07" stroke-width="1.5"/>
<path d="M22.5 16.25C22.5 15.5511 22.5 15.2016 22.6141 14.926C22.7664 14.5584 23.0585 14.2664 23.426 14.1142C23.7017 14 24.0511 14 24.75 14H26.25C26.9489 14 27.2983 14 27.574 14.1142C27.9415 14.2664 28.2336 14.5584 28.3858 14.926C28.5 15.2016 28.5 15.5511 28.5 16.25C28.5 16.9489 28.5 17.2984 28.3858 17.574C28.2336 17.9416 27.9415 18.2336 27.574 18.3858C27.2983 18.5 26.9489 18.5 26.25 18.5H24.75C24.0511 18.5 23.7017 18.5 23.426 18.3858C23.0585 18.2336 22.7664 17.9416 22.6141 17.574C22.5 17.2984 22.5 16.9489 22.5 16.25Z" stroke="#119E07" stroke-width="1.5"/>
</svg>
