<svg width="42" height="43" viewBox="0 0 42 43" fill="none" xmlns="http://www.w3.org/2000/svg">
<rect y="0.5" width="42" height="42" rx="8" fill="#FBDBE0"/>
<path d="M21.0015 19.25C20.1731 19.25 19.5015 19.7537 19.5015 20.375C19.5015 20.9963 20.1731 21.5 21.0015 21.5C21.8299 21.5 22.5015 22.0037 22.5015 22.625C22.5015 23.2463 21.8299 23.75 21.0015 23.75M21.0015 19.25C21.6546 19.25 22.2102 19.5631 22.4161 20M21.0015 19.25V18.5M21.0015 23.75C20.3484 23.75 19.7928 23.4369 19.5869 23M21.0015 23.75V24.5" stroke="#E73959" stroke-width="1.5" stroke-linecap="round"/>
<path d="M21.75 14.375C21.75 14.375 21.5129 14.375 21 14.375C17.6412 14.375 15.9619 14.375 14.9184 15.4184C13.875 16.4619 13.875 18.1412 13.875 21.5C13.875 24.8587 13.875 26.5381 14.9184 27.5816C15.9619 28.625 17.6412 28.625 21 28.625C24.3587 28.625 26.0381 28.625 27.0816 27.5816C28.125 26.5381 28.125 24.8587 28.125 21.5C28.125 20.9871 28.125 20.75 28.125 20.75" stroke="#E73959" stroke-width="1.5" stroke-linecap="round"/>
<path d="M24.3225 17.3507C24.1019 17.5693 24.1002 17.9255 24.3189 18.1462C24.5376 18.3669 24.8937 18.3685 25.1144 18.1499L24.3225 17.3507ZM28.5209 14.7748C28.7416 14.5562 28.7432 14.2 28.5246 13.9793C28.306 13.7587 27.9498 13.757 27.729 13.9757L28.5209 14.7748ZM27.7424 18.6846C28.0531 18.6888 28.3083 18.4405 28.3125 18.1298C28.3168 17.8192 28.0684 17.5639 27.7578 17.5597L27.7424 18.6846ZM24.9407 14.7425C24.9364 14.4319 24.6811 14.1836 24.3706 14.1878C24.0599 14.1921 23.8116 14.4474 23.8159 14.758L24.9407 14.7425ZM25.1144 18.1499L28.5209 14.7748L27.729 13.9757L24.3225 17.3507L25.1144 18.1499ZM25.2019 17.4011C25.164 17.3944 25.1434 17.3802 25.1318 17.3686C25.1202 17.357 25.106 17.3364 25.0993 17.2985L23.9915 17.4945C24.0846 18.0205 24.4795 18.4157 25.0057 18.5089L25.2019 17.4011ZM25.0057 18.5089C25.7667 18.6436 27.1148 18.676 27.7424 18.6846L27.7578 17.5597C27.1072 17.5508 25.8559 17.5169 25.2019 17.4011L25.0057 18.5089ZM23.8159 14.758C23.8245 15.3856 23.8569 16.7335 23.9915 17.4945L25.0993 17.2985C24.9836 16.6444 24.9496 15.3931 24.9407 14.7425L23.8159 14.758Z" fill="#E73959"/>
</svg>
