<svg width="22" height="22" viewBox="0 0 22 22" fill="none" xmlns="http://www.w3.org/2000/svg">
<path d="M2.31905 13.5387C2.12412 14.8166 2.99563 15.7035 4.06267 16.1455C8.15354 17.8403 13.8464 17.8403 17.9372 16.1455C19.0043 15.7035 19.8758 14.8166 19.6809 13.5387C19.5611 12.7534 18.9687 12.0995 18.5298 11.4609C17.955 10.6143 17.8979 9.69073 17.8978 8.70825C17.8978 4.91129 14.8095 1.83325 11 1.83325C7.19041 1.83325 4.10216 4.91129 4.10216 8.70825C4.10207 9.69073 4.04495 10.6143 3.4701 11.4609C3.03123 12.0995 2.43885 12.7534 2.31905 13.5387Z" stroke="#999999" stroke-width="1.5" stroke-linecap="round" stroke-linejoin="round"/>
<path d="M7.33337 17.4167C7.75366 18.9982 9.23592 20.1667 11 20.1667C12.7642 20.1667 14.2464 18.9982 14.6667 17.4167" stroke="#999999" stroke-width="1.5" stroke-linecap="round" stroke-linejoin="round"/>
<rect x="14" width="8" height="8" rx="4" fill="#E73959"/>
</svg>
